<svg width="201" height="200" viewBox="0 0 201 200" fill="none" xmlns="http://www.w3.org/2000/svg">
<g id="graph">
<path id="Ellipse 4" d="M195.5 100C198.261 100 200.513 97.76 200.375 95.002C199.572 78.9568 194.913 63.3145 186.762 49.4141C177.766 34.0737 164.841 21.4097 149.321 12.7275C133.801 4.04536 116.246 -0.34096 98.4664 0.0206788C80.6865 0.382317 63.3247 5.47883 48.1704 14.7849C33.0161 24.091 20.6176 37.27 12.2528 52.9635C3.88801 68.6571 -0.140421 86.2974 0.582707 104.066C1.30583 121.835 6.75436 139.09 16.3667 154.052C25.0767 167.609 36.92 178.84 50.8669 186.813C53.2642 188.184 56.2804 187.189 57.5294 184.726C58.7785 182.263 57.7863 179.266 55.3967 177.883C43.0326 170.722 32.5287 160.708 24.78 148.647C16.1289 135.181 11.2253 119.652 10.5744 103.66C9.92362 87.6676 13.5492 71.7914 21.0775 57.6672C28.6058 43.543 39.7645 31.6819 53.4033 23.3064C67.0422 14.9309 82.6679 10.3441 98.6698 10.0186C114.672 9.69314 130.471 13.6408 144.439 21.4548C158.407 29.2688 170.039 40.6663 178.135 54.4727C185.387 66.8388 189.568 80.7367 190.361 95.0024C190.514 97.7595 192.739 100 195.5 100Z" fill="#28A745"/>
<path id="Ellipse 6" d="M140.805 140.305C141.977 141.477 143.882 141.481 144.994 140.253C152.959 131.449 158.149 120.459 159.871 108.667C161.737 95.883 159.427 82.8381 153.284 71.4724C147.142 60.1067 137.494 51.0273 125.777 45.5844C114.06 40.1416 100.9 38.6261 88.2522 41.2634C75.6048 43.9006 64.1464 50.5497 55.5812 60.2218C47.016 69.8939 41.8015 82.0723 40.7132 94.9459C39.625 107.819 42.721 120.7 49.541 131.673C55.832 141.795 64.9816 149.794 75.8017 154.681C77.3116 155.363 79.0567 154.597 79.6624 153.055C80.2681 151.512 79.5047 149.779 77.9985 149.089C68.3796 144.68 60.2458 137.53 54.6369 128.506C48.4989 118.63 45.7125 107.037 46.6919 95.4513C47.6714 83.8651 52.3644 72.9045 60.0731 64.1996C67.7818 55.4948 78.0943 49.5106 89.4769 47.137C100.86 44.7635 112.704 46.1274 123.25 51.026C133.795 55.9245 142.477 64.096 148.006 74.3252C153.534 84.5543 155.613 96.2947 153.934 107.8C152.399 118.314 147.8 128.119 140.745 136.005C139.641 137.239 139.634 139.134 140.805 140.305Z" fill="#DC3545"/>
<path id="Ellipse 5" d="M176.426 103.36C178.633 103.458 180.511 101.747 180.499 99.5378C180.422 86.3361 177.079 73.3357 170.74 61.7081C163.762 48.9078 153.419 38.2577 140.828 30.9085C128.237 23.5593 113.878 19.7904 99.3003 20.009C84.7232 20.2276 70.4829 24.4254 58.118 32.1489C45.7532 39.8724 35.7339 50.8279 29.1428 63.8317C22.5517 76.8354 19.6392 91.3931 20.7202 105.932C21.8012 120.47 26.8345 134.437 35.2762 146.323C42.9446 157.121 53.1608 165.828 64.9909 171.688C66.9705 172.668 69.332 171.73 70.2124 169.704C71.0928 167.678 70.158 165.332 68.1838 164.34C57.6886 159.069 48.6227 151.299 41.7986 141.691C34.201 130.994 29.6711 118.423 28.6982 105.339C27.7253 92.2538 30.3465 79.1519 36.2785 67.4485C42.2105 55.7451 51.2279 45.8852 62.3562 38.934C73.4846 31.9829 86.3009 28.2049 99.4203 28.0081C112.54 27.8113 125.464 31.2034 136.795 37.8176C148.127 44.4319 157.436 54.017 163.716 65.5373C169.357 75.8847 172.362 87.44 172.495 99.1839C172.52 101.393 174.219 103.262 176.426 103.36Z" fill="#F59E0B"/>
</g>
</svg>
